<svg width="20" height="20" viewBox="0 0 20 20" fill="none" xmlns="http://www.w3.org/2000/svg">
<path d="M1.66675 10.4167V9.58337C1.66675 9.35325 1.8533 9.16671 2.08341 9.16671H15.5584L11.8501 5.46671C11.7712 5.38847 11.7268 5.28197 11.7268 5.17087C11.7268 5.05977 11.7712 4.95328 11.8501 4.87504L12.4417 4.29171C12.52 4.21283 12.6265 4.16846 12.7376 4.16846C12.8487 4.16846 12.9552 4.21283 13.0334 4.29171L18.1501 9.40004C18.2673 9.51714 18.3333 9.676 18.3334 9.84171V10.1584C18.3315 10.3237 18.2658 10.4819 18.1501 10.6L13.0334 15.7084C12.9552 15.7873 12.8487 15.8316 12.7376 15.8316C12.6265 15.8316 12.52 15.7873 12.4417 15.7084L11.8501 15.1167C11.7717 15.0399 11.7275 14.9348 11.7275 14.825C11.7275 14.7153 11.7717 14.6102 11.8501 14.5334L15.5584 10.8334H2.08341C1.8533 10.8334 1.66675 10.6468 1.66675 10.4167Z" fill="#FD5359"/>
</svg>
